<svg id="Layer_1" enable-background="new 0 0 512.5 512.5" height="512" viewBox="0 0 512.5 512.5" width="512" xmlns="http://www.w3.org/2000/svg"><g><g><g><g><path d="m505 287.813c-4.143 0-7.5-3.358-7.5-7.5v-48.126c0-4.142 3.357-7.5 7.5-7.5s7.5 3.358 7.5 7.5v48.126c0 4.142-3.357 7.5-7.5 7.5z" fill="#fed73a"/></g><g><path d="m473.938 336.735c-4.143 0-7.5-3.358-7.5-7.5v-145.97c0-4.142 3.357-7.5 7.5-7.5s7.5 3.358 7.5 7.5v145.971c0 4.141-3.358 7.499-7.5 7.499z" fill="#fed73a"/></g><g><path d="m442.875 320.402c-4.143 0-7.5-3.358-7.5-7.5v-113.304c0-4.142 3.357-7.5 7.5-7.5s7.5 3.358 7.5 7.5v113.304c0 4.142-3.357 7.5-7.5 7.5z" fill="#fed73a"/></g><g><path d="m411.813 370.758c-4.143 0-7.5-3.358-7.5-7.5v-214.016c0-4.142 3.357-7.5 7.5-7.5s7.5 3.358 7.5 7.5v214.017c0 4.141-3.358 7.499-7.5 7.499z" fill="#fed73a"/></g><g><path d="m380.75 401.115c-4.143 0-7.5-3.358-7.5-7.5v-274.73c0-4.142 3.357-7.5 7.5-7.5s7.5 3.358 7.5 7.5v274.73c0 4.142-3.357 7.5-7.5 7.5z" fill="#fed73a"/></g><g><path d="m349.688 466.75c-4.143 0-7.5-3.358-7.5-7.5v-406c0-4.142 3.357-7.5 7.5-7.5s7.5 3.358 7.5 7.5v406c0 4.142-3.358 7.5-7.5 7.5z" fill="#fed73a"/></g><g><path d="m318.625 446.25c-4.143 0-7.5-3.358-7.5-7.5v-365c0-4.142 3.357-7.5 7.5-7.5s7.5 3.358 7.5 7.5v365c0 4.142-3.357 7.5-7.5 7.5z" fill="#fed73a"/></g><g><path d="m287.563 488.75c-4.143 0-7.5-3.358-7.5-7.5v-450c0-4.142 3.357-7.5 7.5-7.5s7.5 3.358 7.5 7.5v450c0 4.142-3.358 7.5-7.5 7.5z" fill="#fed73a"/></g></g><g><path d="m7.5 287.813c-4.143 0-7.5-3.358-7.5-7.5v-48.126c0-4.142 3.357-7.5 7.5-7.5s7.5 3.358 7.5 7.5v48.126c0 4.142-3.357 7.5-7.5 7.5z" fill="#fed73a"/></g><g><path d="m38.563 336.735c-4.143 0-7.5-3.358-7.5-7.5v-145.97c0-4.142 3.357-7.5 7.5-7.5s7.5 3.358 7.5 7.5v145.971c0 4.141-3.358 7.499-7.5 7.499z" fill="#fed73a"/></g><g><path d="m69.625 320.402c-4.143 0-7.5-3.358-7.5-7.5v-113.304c0-4.142 3.357-7.5 7.5-7.5s7.5 3.358 7.5 7.5v113.304c0 4.142-3.357 7.5-7.5 7.5z" fill="#fed73a"/></g><g><path d="m100.688 370.758c-4.143 0-7.5-3.358-7.5-7.5v-214.016c0-4.142 3.357-7.5 7.5-7.5s7.5 3.358 7.5 7.5v214.017c0 4.141-3.358 7.499-7.5 7.499z" fill="#fed73a"/></g><g><path d="m131.75 401.115c-4.143 0-7.5-3.358-7.5-7.5v-274.73c0-4.142 3.357-7.5 7.5-7.5s7.5 3.358 7.5 7.5v274.73c0 4.142-3.357 7.5-7.5 7.5z" fill="#fed73a"/></g><g><path d="m162.813 466.75c-4.143 0-7.5-3.358-7.5-7.5v-406c0-4.142 3.357-7.5 7.5-7.5s7.5 3.358 7.5 7.5v406c0 4.142-3.358 7.5-7.5 7.5z" fill="#fed73a"/></g><g><path d="m193.875 446.25c-4.143 0-7.5-3.358-7.5-7.5v-365c0-4.142 3.357-7.5 7.5-7.5s7.5 3.358 7.5 7.5v365c0 4.142-3.357 7.5-7.5 7.5z" fill="#fed73a"/></g><g><path d="m224.938 488.75c-4.143 0-7.5-3.358-7.5-7.5v-450c0-4.142 3.357-7.5 7.5-7.5s7.5 3.358 7.5 7.5v450c0 4.142-3.358 7.5-7.5 7.5z" fill="#fed73a"/></g><g><path d="m256 512.25c-4.143 0-7.5-3.358-7.5-7.5v-497c0-4.142 3.357-7.5 7.5-7.5s7.5 3.358 7.5 7.5v497c0 4.142-3.357 7.5-7.5 7.5z" fill="#fed73a"/></g></g><g><circle cx="256.5" cy="256.25" fill="#ff73a6" r="135.034"/><path d="m256.5 121.216c-6.796 0-13.473.508-20 1.477 65.092 9.665 115.034 65.776 115.034 133.557s-49.942 123.892-115.034 133.557c6.527.969 13.204 1.477 20 1.477 74.577 0 135.034-60.457 135.034-135.034s-60.457-135.034-135.034-135.034z" fill="#fc3f84"/><g fill="#fff"><circle cx="211.14" cy="306.151" r="23.883"/><circle cx="291.672" cy="277.389" r="23.883"/><path d="m315.503 180.189c-.532-4.722-5.486-7.817-9.971-6.213l-80.531 28.761c-2.957 1.055-4.978 3.939-4.978 7.063v25.885 70.465c0 4.142 3.357 7.5 7.5 7.5s7.5-3.358 7.5-7.5v-65.18l65.531-23.404v59.823c0 4.142 3.357 7.5 7.5 7.5s7.5-3.358 7.5-7.5v-70.465-25.884c.001-.288-.019-.571-.051-.851zm-80.48 44.854v-9.957l65.531-23.404v9.957z"/><path d="m307.5 205.167-80.5 29.334v-26.138l80.5-29.334z"/></g></g></g></svg>